# AST/ASF file generated using VICON BodyLanguage
# -----------------------------------------------
:version 1.10
:name VICON
:units
  mass 1.0
  length 0.45
  angle deg
:documentation
   .ast/.asf automatically generated from VICON data using
   VICON BodyBuilder and BodyLanguage model FoxedUp or BRILLIANT.MOD
:root
   order TX TY TZ RX RY RZ
   axis XYZ
   position 0 0 0  
   orientation 0 0 0 
:bonedata
  begin
     id 1 
     name lhipjoint
     direction 0.711131 -0.61297 0.344326 
     length 2.29162 
     axis 0 0 0  XYZ
  end
  begin
     id 2 
     name lfemur
     direction 0.34202 -0.939693 0  
     length 6.71424  
     axis 0 0 20  XYZ
    dof rx ry rz
    limits (-160.0 20.0)
           (-70.0 70.0)
           (-60.0 70.0)
  end
  begin
     id 3 
     name ltibia
     direction 0.34202 -0.939693 0   
     length 6.7087   
     axis 0 0 20   XYZ
    dof rx
    limits (-10.0 170.0)
  end
  begin
     id 4 
     name lfoot
     direction 0.0230374 -0.0632947 0.997729   
     length 1.56743   
     axis -90 7.62852e-016 20   XYZ
    dof rx rz
    limits (-45.0 90.0)
           (-70.0 20.0)
  end
  begin
     id 5 
     name ltoes
     direction 1.53585e-011 -4.21885e-011 1   
     length 0.802914   
     axis -90 7.62852e-016 20   XYZ
    dof rx
    limits (-90.0 20.0)
  end
  begin
     id 6 
     name rhipjoint
     direction -0.733192 -0.592884 0.333043   
     length 2.36925  
     axis 0 0 0  XYZ 
  end
  begin
     id 7 
     name rfemur
     direction -0.34202 -0.939693 0   
     length 6.67027   
     axis 0 0 -20   XYZ
    dof rx ry rz
    limits (-160.0 20.0)
           (-70.0 70.0)
           (-70.0 60.0)
  end
  begin
     id 8 
     name rtibia
     direction -0.34202 -0.939693 0   
     length 6.6862   
     axis 0 0 -20   XYZ
    dof rx
    limits (-10.0 170.0)
 end
 begin
     id 9 
     name rfoot
     direction -0.0949739 -0.260939 0.960672   
     length 1.67698  
     axis -90 -7.62852e-016 -20   XYZ
    dof rx rz
    limits (-45.0 90.0)
           (-20.0 70.0)
  end
  begin
     id 10 
     name rtoes
     direction -1.5353e-011 -4.21868e-011 1   
     length 0.846298   
     axis -90 -7.62852e-016 -20   XYZ
    dof rx
    limits (-90.0 20.0)
  end
  begin
     id 11 
     name lowerback
     direction -0.0206828 0.999785 -0.00109866   
     length 2.04382   
     axis 0 0 0   XYZ
    dof rx ry rz
    limits (-20.0 45.0)
           (-30.0 30.0)
           (-30.0 30.0)
  end
  begin
     id 12 
     name upperback
     direction -0.0105003 0.999727 -0.0208904   
     length 2.04538   
     axis 0 0 0   XYZ
    dof rx ry rz
    limits (-20.0 45.0)
           (-30.0 30.0)
           (-30.0 30.0)
  end
  begin
     id 13 
     name thorax
     direction -0.000416255 0.999808 -0.0196023   
     length 2.0399   
     axis 0 0 0   XYZ
    dof rx ry rz
    limits (-20.0 45.0)
           (-30.0 30.0)
           (-30.0 30.0)
  end
  begin
     id 14 
     name lowerneck
     direction 0.0627861 0.989205 0.13241   
     length 1.46207   
     axis 0 0 0   XYZ
    dof rx ry rz
    limits (-20.0 45.0)
           (-30.0 30.0)
           (-30.0 30.0)
  end
  begin
     id 15 
     name upperneck
     direction 0.00627179 0.994526 0.104303   
     length 1.41419   
     axis 0 0 0   XYZ
    dof rx ry rz
    limits (-20.0 45.0)
           (-30.0 30.0)
           (-30.0 30.0)
  end
  begin
     id 16
     name head
     direction -0.00443838 0.999688 0.0245968  
     length 1.50718  
     axis 0 0 0   XYZ
    dof rx ry rz
    limits (-20.0 45.0)
           (-30.0 30.0)
           (-30.0 30.0)
  end
  begin
     id 17 
     name lclavicle
     direction 0.758742 0.650995 -0.0227258  
     length 2.86888  
     axis 0 0 0   XYZ
    dof ry rz
    limits (-20.0 10.0)
           (0.0 20.0)
  end
  begin
     id 18 
     name lhumerus
     direction 1 -4.48962e-011 1.06664e-027   
     length 4.65776   
     axis -180 -30 -90   XYZ
    dof rx ry rz
    limits (-60.0 90.0)
           (-90.0 90.0)
           (-90.0 90.0)
  end
  begin
     id 19
     name lradius
     direction 1 -4.48968e-011 1.40404e-026   
     length 3.55539   
     axis -180 -30 -90   XYZ
    dof rx
    limits (-10.0 170.0)
  end
  begin
     id 20
     name lwrist
     direction 1 -4.48976e-011 3.32647e-026   
     length 1.77769   
     axis -2.20186e-014 90 90   XYZ
    dof ry
    limits (-180.0 0.0)
 end
  begin
     id 21 
     name lhand
     direction 1 -4.48982e-011 6.65293e-026   
     length 0.707264   
     axis -4.24514e-014 90 90   XYZ
    dof rx rz
    limits (-90.0 90.0)
           (-45.0 45.0)
  end
  begin
     id 22 
     name lfingers
     direction 1 -4.48966e-011 1.33059e-025   
     length 0.570215   
     axis -8.49028e-014 90 90   XYZ
    dof rx
    limits (0.0 90.0)
  end
  begin
     id 23
     name lthumb
     direction 0.707107 -6.3493e-011 0.707107   
     length 0.818718   
     axis -90 45 2.85299e-015   XYZ
    dof rx rz
    limits (-45.0 45.0)
           (-45.0 45.0)
  end
  begin
     id 24 
     name rclavicle
     direction -0.870343 0.482028 -0.100759   
     length 3.2251  
     axis 0 0 0   XYZ 
    dof ry rz
    limits (-10.0 20.0)
           (-20.0 0.0)
  end
  begin
     id 25 
     name rhumerus
     direction -1 -4.48974e-011 -9.45849e-028  
     length 4.71925   
     axis -180 30 90   XYZ
    dof rx ry rz
    limits (-90.0 60.0)
           (-90.0 90.0)
           (-90.0 90.0)
  end
  begin
     id 26 
     name rradius
     direction -1 -4.48965e-011 1.17607e-026   
     length 3.5699   
     axis -180 30 90   XYZ
    dof rx
    limits (-10.0 170.0)
  end
  begin
     id 27 
     name rwrist
     direction -1 -4.48968e-011 3.32647e-026   
     length 1.78495   
     axis -2.20186e-014 -90 -90   XYZ
    dof ry
    limits (-180.0 0.0)
  end
  begin
     id 28
     name rhand
     direction -1 -4.48995e-011 6.65293e-026   
     length 0.507757   
     axis -4.24514e-014 -90 -90   XYZ
    dof rx rz
    limits (-90.0 90.0)
           (-45.0 45.0)
  end
  begin
     id 29
     name rfingers
     direction -1 -4.48864e-011 1.33059e-025   
     length 0.409367   
     axis -8.49028e-014 -90 -90   XYZ
    dof rx
    limits (0.0 90.0)
  end
  begin
     id 30
     name rthumb
     direction -0.707107 -6.3494e-011 0.707107   
     length 0.587771   
     axis -90 -45 -2.85299e-015   XYZ
    dof rx rz
    limits (-45.0 45.0)
           (-45.0 45.0)
  end
:hierarchy
  begin
    root lhipjoint rhipjoint lowerback
    lhipjoint lfemur
    lfemur ltibia
    ltibia lfoot
    lfoot ltoes
    rhipjoint rfemur
    rfemur rtibia
    rtibia rfoot
    rfoot rtoes
    lowerback upperback
    upperback thorax
    thorax lowerneck lclavicle rclavicle
    lowerneck upperneck
    upperneck head
    lclavicle lhumerus
    lhumerus lradius
    lradius lwrist
    lwrist lhand lthumb
    lhand lfingers
    rclavicle rhumerus
    rhumerus rradius
    rradius rwrist
    rwrist rhand rthumb
    rhand rfingers
  end

#!OML:ASF E:\Steps\Project 1\Capture day 1\Session 2\Subject.ASF
:FULLY-SPECIFIED
:DEGREES
122
root -1.09857 17.9901 20.8283 -157.375 -0.671781 180.424
lowerback -22.4282 -3.34422 -8.96904
upperback 0.991463 -2.15482 -0.721923
thorax 14.1354 -1.70405 3.53551
lowerneck 1.88638 -7.93944 -2.57472
upperneck 17.4261 -10.1149 3.46211
head 5.25804 -4.4819 1.11592
rclavicle -1.39149e-015 -2.8625e-014
rhumerus -40.8634 -8.77418 -82.162
rradius 51.3139
rwrist 10.4377
rhand -12.0506 -55.2395
rfingers 7.12502
rthumb 14.0083 -84.7475
lclavicle -1.39149e-015 -2.8625e-014
lhumerus -30.8712 6.75676 78.9909
lradius 23.7186
lwrist -1.58774
lhand -25.3192 -13.0119
lfingers 7.12502
lthumb 1.20329 16.9644
rfemur -42.0996 -7.1374 21.7875
rtibia 45.2981
rfoot -23.0556 0.0622956
rtoes -46.7131
lfemur -22.3224 -8.39515 -20.5639
ltibia 13.7362
lfoot -11.9429 2.81687
ltoes -24.6839
123
root -1.09789 17.9907 20.8261 -157.322 -0.540935 180.517
lowerback -22.6916 -3.31258 -8.8053
upperback 1.14085 -2.10733 -0.758032
thorax 14.4508 -1.67922 3.40579
lowerneck 2.13487 -8.08454 -2.42786
upperneck 17.1748 -10.325 3.4749
head 5.13883 -4.58917 1.10052
rclavicle -1.19271e-014 -2.78299e-014
rhumerus -40.7959 -9.5642 -81.9347
rradius 50.595
rwrist 10.2298
rhand -12.3444 -55.2348
rfingers 7.12502
rthumb 13.7251 -84.7621
lclavicle -1.19271e-014 -2.78299e-014
lhumerus -30.5509 6.60184 78.8944
lradius 23.6744
lwrist -2.41492
lhand -25.3017 -12.7619
lfingers 7.12502
lthumb 1.22018 17.2144
rfemur -42.7142 -7.14253 21.4149
rtibia 45.7047
rfoot -23.3743 -1.03278
rtoes -46.8439
lfemur -22.3254 -8.3913 -20.4718
ltibia 13.6724
lfoot -11.9715 2.92695
ltoes -23.5438
124
root -1.09774 17.9939 20.8214 -157.335 -0.468517 180.58
lowerback -22.371 -3.29333 -8.65931
upperback 1.017 -2.16674 -0.76518
thorax 14.118 -1.68313 3.30727
lowerneck 2.1494 -8.10076 -2.35967
upperneck 17.6674 -10.2796 3.25035
head 5.27331 -4.54632 1.01813
rclavicle 1.39149e-014 -2.22639e-014
rhumerus -41.27 -10.0819 -81.615
rradius 50.0489
rwrist 9.9373
rhand -12.4443 -55.294
rfingers 7.12502
rthumb 13.6288 -84.8279
lclavicle 1.39149e-014 -2.22639e-014
lhumerus -30.6546 6.7249 78.7093
lradius 23.5145
lwrist -3.30558
lhand -25.3624 -12.7266
lfingers 7.12502
lthumb 1.16154 17.25
rfemur -43.1892 -7.18718 20.9887
rtibia 45.8889
rfoot -23.7507 -2.45537
rtoes -47.3205
lfemur -22.2611 -8.41071 -20.4251
ltibia 13.6176
lfoot -11.8907 3.08072
ltoes -24.1065
125
root -1.09791 17.9967 20.8122 -157.408 -0.38538 180.513
lowerback -22.293 -3.30094 -8.68761
upperback 1.18035 -2.15366 -0.791047
thorax 14.2674 -1.68246 3.29631
lowerneck 1.54358 -8.06217 -2.31183
upperneck 18.1725 -10.2244 3.20701
head 5.52534 -4.49692 0.96747
rclavicle 1.51076e-014 -6.36111e-015
rhumerus -41.0957 -10.6561 -81.3246
rradius 49.264
rwrist 9.67057
rhand -12.2823 -55.4859
rfingers 7.12502
rthumb 13.785 -85.0092
lclavicle 1.51076e-014 -6.36111e-015
lhumerus -30.4211 6.65894 78.7143
lradius 23.4825
lwrist -3.41477
lhand -25.1579 -12.8663
lfingers 7.12502
lthumb 1.35907 17.1091
rfemur -43.467 -7.35967 20.3853
rtibia 45.8321
rfoot -24.0251 -3.91716
rtoes -47.0937
lfemur -22.0949 -8.47642 -20.5576
ltibia 13.5317
lfoot -11.8401 3.33669
ltoes -25.4759
126
root -1.09531 17.9997 20.8034 -157.485 -0.310773 180.442
lowerback -22.2903 -3.28916 -8.79047
upperback 1.3706 -2.0867 -0.794122
thorax 14.4904 -1.66698 3.36983
lowerneck 1.10721 -8.14362 -2.28249
upperneck 18.4152 -10.363 3.29563
head 5.68211 -4.54884 0.960635
rclavicle 7.95139e-016 2.46493e-014
rhumerus -40.8301 -11.3131 -80.978
rradius 48.4252
rwrist 9.47712
rhand -12.0659 -55.8656
rfingers 7.12502
rthumb 13.9935 -85.3746
lclavicle 7.95139e-016 2.46493e-014
lhumerus -30.0702 6.74737 78.6767
lradius 23.3744
lwrist -4.10782
lhand -24.3965 -11.993
lfingers 7.12502
lthumb 2.09446 17.9765
rfemur -43.6693 -7.49558 19.7337
rtibia 45.6522
rfoot -24.0957 -5.35338
rtoes -46.5825
lfemur -21.958 -8.55738 -20.6629
ltibia 13.4824
lfoot -11.906 3.55505
ltoes -25.9716
127
root -1.09058 18.0096 20.7987 -157.537 -0.42171 180.649
lowerback -22.2084 -3.26992 -8.62025
upperback 1.49917 -2.1059 -0.683911
thorax 14.5975 -1.66798 3.39405
lowerneck 0.900401 -8.18141 -2.26433
upperneck 18.5086 -10.4256 3.31387
head 5.74829 -4.57455 0.949607
rclavicle 4.45278e-014 5.08889e-014
rhumerus -40.7435 -11.9652 -80.5771
rradius 47.744
rwrist 9.29135
rhand -11.6607 -56.618
rfingers 7.12502
rthumb 14.384 -86.0996
lclavicle 4.45278e-014 5.08889e-014
lhumerus -29.6227 7.01725 78.6467
lradius 23.1257
lwrist -4.88376
lhand -23.5449 -10.7295
lfingers 7.12502
lthumb 2.91691 19.2303
rfemur -43.814 -7.36686 19.341
rtibia 45.3304
rfoot -24.1343 -6.57717
rtoes -45.2291
lfemur -21.9578 -8.63469 -20.3506
ltibia 13.58
lfoot -11.9816 3.58434
ltoes -25.8344
128
root -1.0852 18.019 20.792 -157.574 -0.588886 180.851
lowerback -22.1018 -3.31449 -8.45572
upperback 1.55642 -2.2228 -0.551194
thorax 14.6184 -1.71189 3.41532
lowerneck 0.927369 -8.0585 -2.34464
upperneck 18.4954 -10.2506 3.30959
head 5.73787 -4.49489 0.971857
rclavicle -2.38542e-015 -2.06736e-014
rhumerus -40.8942 -12.459 -80.1919
rradius 47.1542
rwrist 9.09516
rhand -11.6078 -56.8068
rfingers 7.12502
rthumb 14.4349 -86.2848
lclavicle -2.38542e-015 -2.06736e-014
lhumerus -29.4004 7.22618 78.5914
lradius 22.9797
lwrist -5.22795
lhand -24.0584 -13.2636
lfingers 7.12502
lthumb 2.42099 16.7024
rfemur -43.8673 -7.17787 18.8785
rtibia 44.9002
rfoot -24.2382 -7.36641
rtoes -42.6783
lfemur -21.9835 -8.76391 -20.0375
ltibia 13.7523
lfoot -12.0329 3.62242
ltoes -26.2384
129
root -1.08072 18.0167 20.7709 -157.561 -0.661055 180.846
lowerback -22.2166 -3.41105 -8.49362
upperback 1.5567 -2.33727 -0.483894
thorax 14.7066 -1.77216 3.47024
lowerneck 1.30739 -8.02563 -2.37293
upperneck 18.3035 -10.1902 3.29204
head 5.61242 -4.47529 0.992948
rclavicle -8.34896e-015 -2.62396e-014
rhumerus -41.192 -12.6364 -79.9103
rradius 46.5245
rwrist 8.6059
rhand -12.3305 -56.364
rfingers 7.12502
rthumb 13.7385 -85.8904
lclavicle -8.34896e-015 -2.62396e-014
lhumerus -29.5238 7.2821 78.4589
lradius 22.9584
lwrist -5.52702
lhand -24.6245 -14.1063
lfingers 7.12502
lthumb 1.8742 15.8652
rfemur -43.8044 -7.246 18.2457
rtibia 44.17
rfoot -24.1537 -8.34093
rtoes -41.9153
lfemur -21.8738 -8.86521 -20.0721
ltibia 13.7414
lfoot -12.1014 3.58769
ltoes -26.4716
130
root -1.07627 18.0144 20.7515 -157.543 -0.677658 180.865
lowerback -22.1256 -3.42721 -8.46765
upperback 1.42735 -2.39181 -0.45572
thorax 14.5051 -1.78923 3.47503
lowerneck 1.65152 -8.153 -2.35123
upperneck 18.3256 -10.3359 3.25854
head 5.56401 -4.54157 0.986516
rclavicle -1.90833e-014 -2.46493e-014
rhumerus -41.6679 -12.8183 -79.6406
rradius 45.8974
rwrist 8.01063
rhand -12.7959 -56.3256
rfingers 7.12502
rthumb 13.2899 -85.8819
lclavicle -1.90833e-014 -2.46493e-014
lhumerus -29.8519 7.16497 78.3435
lradius 22.9932
lwrist -5.50513
lhand -24.8767 -13.9786
lfingers 7.12502
lthumb 1.6307 15.995
rfemur -43.7364 -7.1937 17.6349
rtibia 43.3035
rfoot -24.1245 -9.47547
rtoes -41.7171
lfemur -21.7371 -8.95143 -20.0723
ltibia 13.6324
lfoot -12.1782 3.51369
ltoes -25.7586
131
root -1.0628 18.0308 20.7662 -157.652 -0.622916 181.077
lowerback -21.6835 -3.36731 -8.44547
upperback 1.46441 -2.36489 -0.327508
thorax 14.2947 -1.77186 3.63405
lowerneck 1.53493 -8.25069 -2.36569
upperneck 18.3932 -10.4681 3.21687
head 5.60779 -4.6092 0.962851
rclavicle 1.59028e-014 -2.38542e-015
rhumerus -41.7305 -13.2291 -79.3424
rradius 45.2676
rwrist 7.60843
rhand -12.627 -56.5703
rfingers 7.12502
rthumb 13.4527 -86.1158
lclavicle 1.59028e-014 -2.38542e-015
lhumerus -29.6559 7.28649 78.3919
lradius 22.9971
lwrist -5.33732
lhand -24.909 -13.2105
lfingers 7.12502
lthumb 1.59949 16.7633
rfemur -43.8168 -6.61514 17.1296
rtibia 42.6414
rfoot -24.1327 -10.6052
rtoes -40.6191
lfemur -21.8359 -9.04826 -19.6423
ltibia 13.8246
lfoot -12.223 3.78326
ltoes -25.3003
